# xmcd CD database file generated by Grip 3.0.7
# 
# Track frame offsets:
#       150
#       15282
#       32654
#       46391
#       65393
#       79497
#       90082
#       104716
#       120856
#       136048
#       149565
#       163069
#       176633
# 
# Disc length: 2480 seconds
# 
# Revision: 1
# Processed by: cddbd v1.4PL0 Copyright (c) Steve Scherf et al.
# Submitted via: Grip 3.0.7
# 
DISCID=a209ae0d
DTITLE=Slim Dusty - '99
DYEAR=1999
DGENRE=Country
TTITLE0=Bindi_Eye Ball
TTITLE1=The Swagless Swaggie
TTITLE2=Abalinga Mail
TTITLE3=Banjo
TTITLE4=Diggin' A Hole
TTITLE5=It's Good To See You Mate
TTITLE6=The Ghost Of Ben Hall
TTITLE7=Kelly's Country Kitchen
TTITLE8=Outback
TTITLE9=No Bids For The Bay
TTITLE10=When Musterings In Full Swing
TTITLE11=Bushman's Prayer
TTITLE12=Along The Road To Nulla Nulla
EXTD=YEAR: 1999 ID3G: 2
EXTT0=
EXTT1=
EXTT2=
EXTT3=
EXTT4=
EXTT5=
EXTT6=
EXTT7=
EXTT8=
EXTT9=
EXTT10=
EXTT11=
EXTT12=
PLAYORDER=
